<?xml version="1.0" encoding="utf-8"?>
<!-- Generator: Adobe Illustrator 26.2.1, SVG Export Plug-In . SVG Version: 6.00 Build 0)  -->
<svg version="1.1" id="Laag_1" xmlns="http://www.w3.org/2000/svg" xmlns:xlink="http://www.w3.org/1999/xlink" x="0px" y="0px"
	 viewBox="0 0 1920 1080" style="enable-background:new 0 0 1920 1080;" xml:space="preserve">
<style type="text/css">
	.st0{fill:#FFFFFF;}
	.st1{font-family:'Poppins-Medium';}
	.st2{font-size:120.0576px;}
	.st3{fill:#F30342;}
</style>
<g>
	<text transform="matrix(1 0 0 1 272.0746 176.3804)" class="st0 st1 st2">Platenbox.nl</text>
	<path class="st3" d="M141,50c-46.2,0-83.7,37.5-83.7,83.7c0,35.7,22.3,66.1,53.7,78.2v-78.2c0-0.5,0.1-1.1,0.1-1.6
		c0.8-15.8,13.9-28.4,29.9-28.4c16.6,0,30,13.4,30,30s-13.4,30-30,30c-6.5,0-12.5-2.1-17.4-5.6v57.5c5.6,1.2,11.4,1.8,17.4,1.8
		c46.2,0,83.7-37.5,83.7-83.7C224.7,87.5,187.2,50,141,50z"/>
</g>
</svg>
